<svg id="Layer_3" data-name="Layer 3" xmlns="http://www.w3.org/2000/svg" viewBox="0 0 720 720"><defs><style>.cls-1{fill:#414042;}</style></defs><title>bw-logo</title><g id="BW2"><path class="cls-1" d="M202.76,360l18.13-17.69L264.24,300l52.42-51.16,45.48-44.39c7.35-7.18,14.8-14.27,22.06-21.53l0.3-.29h-49V358.68c0,1.45.13,1.44,1.18,2.47l7.23,7.05,29.92,29.2L416,438.58,460.49,482l36.78,35.9,19.09,18.63,0.88,0.86c0.56,0.54,7.48.18,7.18,0.17,5.77,0.06,11.55.07,17.32,0.07,1.79,0,24.5,0,24.5-.25V188c0-1.41.36-3.39,0-4.76a2.63,2.63,0,0,1,0-.6c0-.36-49-0.37-49,0V522.91c0,4.62-.06,9.24,0,13.86,0,0.2,0,.4,0,0.6h49l-13.36-13L519.44,491.7l-43.53-42.49-43.65-42.6-33.69-32.88-10.15-9.91-2.8-2.73a5.14,5.14,0,0,1-1.1-1.08,4.55,4.55,0,0,1,0-1.43v-176c0-.29-22.67-0.25-24.5-0.25-5.77,0-11.55,0-17.32.07l-3.83,0a33.1,33.1,0,0,0-3.34.12l-18.13,17.69L274,242.63,221.6,293.79l-45.48,44.39-14.9,14.54-4.71,4.6c-0.62.6-2.12,1.58-2.45,2.39a1.38,1.38,0,0,1-.3.29c0.32-.31,7.84.18,7.18,0.17,5.77,0.06,11.55.07,17.32,0.07s11.55,0,17.32-.07l3.83,0a33.1,33.1,0,0,0,3.34-.12h0Z"/><path class="cls-1" d="M153.76,182.63V532c0,1.41-.36,3.39,0,4.76a2.63,2.63,0,0,1,0,.6c0,0.29,22.67.25,24.5,0.25,5.77,0,11.55,0,17.32-.07l3.83,0a33.1,33.1,0,0,0,3.34-.12l18.13-17.69,43.35-42.3,52.42-51.16,45.48-44.39L377,367.28l4.71-4.6c0.62-.6,2.12-1.58,2.45-2.39a1.38,1.38,0,0,1,.3-0.29c-0.32.31-7.84-.18-7.18-0.17-5.77-.06-11.55-0.07-17.32-0.07s-11.55,0-17.32.07l-3.83,0a33.1,33.1,0,0,0-3.34.12l-18.13,17.69L274,420,221.6,471.16l-45.48,44.39c-7.35,7.18-14.8,14.27-22.06,21.53l-0.3.29h49V188c0-1.41.36-3.39,0-4.76a2.63,2.63,0,0,1,0-.6c0-.36-49-0.37-49,0h0Z"/></g></svg>